ffmpeg started on 2026-04-01 at 11:21:49
Report written to "D:\Convert\FFMetrics\reports\ssim_report-6.txt"
Log level: 32
Command line:
ffmpeg -hide_banner -nostdin -r 24000/1001 -i "F:\\Convert\\files\\[DC] Make Heroine ga Oosugiru - 07_Telegram_HEVC(267).mkv" -r 24000/1001 -i "F:\\Convert\\files\\[DC] Make Heroine ga Oosugiru - 07_Telegram.mp4" -lavfi "[0:v]settb=AVTB,setpts=PTS-STARTPTS,format=pix_fmts=yuv420p10le,fps=24000/1001,scale=1920:1080:flags=lanczos:param0=3:out_range=limited:out_color_matrix=bt709:out_chroma_loc=left,setsar=1/1,setdar=(1920/1080)*(1/1),colorspace=format=yuv420p10:range=tv:primaries=bt709:trc=bt709:space=bt709:fast=0[main];[1:v]settb=AVTB,setpts=PTS-STARTPTS,format=pix_fmts=yuv420p,fps=24000/1001,scale=1920:1080:flags=lanczos:param0=3:out_range=limited:out_color_matrix=bt709:out_chroma_loc=left,setsar=1/1,setdar=(1920/1080)*(1/1),colorspace=format=yuv420p:range=tv:primaries=bt709:trc=bt709:space=bt709:fast=0[ref];[main][ref]ssim=eof_action=endall:stats_file='D\\:/Convert/FFMetrics/logs/ssim_logfile-6.txt'" -f null -
Input #0, matroska,webm, from 'F:\Convert\files\[DC] Make Heroine ga Oosugiru - 07_Telegram_HEVC(267).mkv':
  Metadata:
    COMPATIBLE_BRANDS: isomiso2avc1mp41
    MAJOR_BRAND     : isom
    MINOR_VERSION   : 512
    ENCODER         : Lavf61.7.100
  Duration: 00:24:06.79, start: -0.021000, bitrate: 922 kb/s
  Stream #0:0: Video: hevc (Main 10), yuv420p10le(tv, bt709, progressive), 1920x1080 [SAR 1:1 DAR 16:9], 23.98 fps, 23.98 tbr, 1k tbn (default)
      Metadata:
        HANDLER_NAME    : VideoHandler
        VENDOR_ID       : [0][0][0][0]
        ENCODER         : Lavc61.19.100 libx265
        BPS             : 725092
        DURATION        : 00:24:06.569708333
        NUMBER_OF_FRAMES: 34683
        NUMBER_OF_BYTES : 131111956
        _STATISTICS_WRITING_APP: mkvpropedit v94.0 ('Initiate') 64-bit
        _STATISTICS_WRITING_DATE_UTC: 2026-03-30 11:32:32
        _STATISTICS_TAGS: BPS DURATION NUMBER_OF_FRAMES NUMBER_OF_BYTES
  Stream #0:1: Audio: aac (LC), 48000 Hz, stereo, fltp (default)
      Metadata:
        HANDLER_NAME    : SoundHandler
        VENDOR_ID       : [0][0][0][0]
        ENCODER         : Lavc61.19.100 aac
        BPS             : 193194
        DURATION        : 00:24:06.784000000
        NUMBER_OF_FRAMES: 67819
        NUMBER_OF_BYTES : 34938755
        _STATISTICS_WRITING_APP: mkvpropedit v94.0 ('Initiate') 64-bit
        _STATISTICS_WRITING_DATE_UTC: 2026-03-30 11:32:32
        _STATISTICS_TAGS: BPS DURATION NUMBER_OF_FRAMES NUMBER_OF_BYTES
Input #1, mov,mp4,m4a,3gp,3g2,mj2, from 'F:\Convert\files\[DC] Make Heroine ga Oosugiru - 07_Telegram.mp4':
  Metadata:
    major_brand     : isom
    minor_version   : 512
    compatible_brands: isomiso2avc1mp41
    encoder         : Lavf60.16.100
  Duration: 00:24:06.74, start: 0.000000, bitrate: 3764 kb/s
  Stream #1:0[0x1](und): Video: h264 (High) (avc1 / 0x31637661), yuv420p(tv, bt709, progressive), 1920x1080 [SAR 1:1 DAR 16:9], 3616 kb/s, 23.98 fps, 23.98 tbr, 24k tbn (default)
      Metadata:
        handler_name    : VideoHandler
        vendor_id       : [0][0][0][0]
        encoder         : Lavc60.31.102 h264_qsv
  Stream #1:1[0x2](und): Audio: aac (HE-AACv2) (mp4a / 0x6134706D), 48000 Hz, stereo, fltp, 144 kb/s (default)
      Metadata:
        handler_name    : SoundHandler
        vendor_id       : [0][0][0][0]
Stream mapping:
  Stream #0:0 (hevc) -> settb:default
  Stream #1:0 (h264) -> settb:default
  ssim:default -> Stream #0:0 (wrapped_avframe)
  Stream #0:1 -> #0:1 (aac (native) -> pcm_s16le (native))
Output #0, null, to 'pipe:':
  Metadata:
    COMPATIBLE_BRANDS: isomiso2avc1mp41
    MAJOR_BRAND     : isom
    MINOR_VERSION   : 512
    encoder         : Lavf61.7.100
  Stream #0:0: Video: wrapped_avframe, yuv420p10le(tv, bt709, progressive), 1920x1080 [SAR 1:1 DAR 16:9], q=2-31, 200 kb/s, 23.98 fps, 23.98 tbn
      Metadata:
        encoder         : Lavc61.19.100 wrapped_avframe
  Stream #0:1: Audio: pcm_s16le, 48000 Hz, stereo, s16, 1536 kb/s (default)
      Metadata:
        HANDLER_NAME    : SoundHandler
        VENDOR_ID       : [0][0][0][0]
        _STATISTICS_TAGS: BPS DURATION NUMBER_OF_FRAMES NUMBER_OF_BYTES
        BPS             : 193194
        DURATION        : 00:24:06.784000000
        NUMBER_OF_FRAMES: 67819
        NUMBER_OF_BYTES : 34938755
        _STATISTICS_WRITING_APP: mkvpropedit v94.0 ('Initiate') 64-bit
        _STATISTICS_WRITING_DATE_UTC: 2026-03-30 11:32:32
        encoder         : Lavc61.19.100 pcm_s16le
frame=  123 fps=0.0 q=-0.0 size=N/A time=00:00:05.13 bitrate=N/A speed=9.94x    frame=  298 fps=290 q=-0.0 size=N/A time=00:00:12.42 bitrate=N/A speed=12.1x    frame=  488 fps=314 q=-0.0 size=N/A time=00:00:20.35 bitrate=N/A speed=13.1x    frame=  669 fps=324 q=-0.0 size=N/A time=00:00:27.90 bitrate=N/A speed=13.5x    frame=  847 fps=328 q=-0.0 size=N/A time=00:00:35.32 bitrate=N/A speed=13.7x    frame=  990 fps=320 q=-0.0 size=N/A time=00:00:41.29 bitrate=N/A speed=13.4x    frame= 1143 fps=316 q=-0.0 size=N/A time=00:00:47.67 bitrate=N/A speed=13.2x    frame= 1302 fps=315 q=-0.0 size=N/A time=00:00:54.30 bitrate=N/A speed=13.2x    frame= 1458 fps=314 q=-0.0 size=N/A time=00:01:00.81 bitrate=N/A speed=13.1x    frame= 1608 fps=312 q=-0.0 size=N/A time=00:01:07.06 bitrate=N/A speed=  13x    frame= 1761 fps=310 q=-0.0 size=N/A time=00:01:13.44 bitrate=N/A speed=12.9x    frame= 1925 fps=311 q=-0.0 size=N/A time=00:01:20.28 bitrate=N/A speed=  13x    frame= 2064 fps=308 q=-0.0 size=N/A time=00:01:26.08 bitrate=N/A speed=12.8x    frame= 2193 fps=304 q=-0.0 size=N/A time=00:01:31.46 bitrate=N/A speed=12.7x    frame= 2348 fps=303 q=-0.0 size=N/A time=00:01:37.93 bitrate=N/A speed=12.7x    frame= 2479 fps=300 q=-0.0 size=N/A time=00:01:43.39 bitrate=N/A speed=12.5x    frame= 2622 fps=299 q=-0.0 size=N/A time=00:01:49.35 bitrate=N/A speed=12.5x    frame= 2793 fps=301 q=-0.0 size=N/A time=00:01:56.49 bitrate=N/A speed=12.6x    frame= 2964 fps=303 q=-0.0 size=N/A time=00:02:03.62 bitrate=N/A speed=12.6x    frame= 3147 fps=305 q=-0.0 size=N/A time=00:02:11.25 bitrate=N/A speed=12.7x    frame= 3325 fps=307 q=-0.0 size=N/A time=00:02:18.68 bitrate=N/A speed=12.8x    frame= 3503 fps=309 q=-0.0 size=N/A time=00:02:26.10 bitrate=N/A speed=12.9x    frame= 3680 fps=310 q=-0.0 size=N/A time=00:02:33.48 bitrate=N/A speed=12.9x    frame= 3867 fps=312 q=-0.0 size=N/A time=00:02:41.28 bitrate=N/A speed=  13x    frame= 4039 fps=313 q=-0.0 size=N/A time=00:02:48.45 bitrate=N/A speed=13.1x    frame= 4213 fps=314 q=-0.0 size=N/A time=00:02:55.71 bitrate=N/A speed=13.1x    frame= 4396 fps=315 q=-0.0 size=N/A time=00:03:03.34 bitrate=N/A speed=13.2x    frame= 4572 fps=316 q=-0.0 size=N/A time=00:03:10.69 bitrate=N/A speed=13.2x    frame= 4749 fps=317 q=-0.0 size=N/A time=00:03:18.07 bitrate=N/A speed=13.2x    frame= 4926 fps=318 q=-0.0 size=N/A time=00:03:25.45 bitrate=N/A speed=13.3x    frame= 5110 fps=319 q=-0.0 size=N/A time=00:03:33.12 bitrate=N/A speed=13.3x    frame= 5285 fps=320 q=-0.0 size=N/A time=00:03:40.42 bitrate=N/A speed=13.4x    frame= 5468 fps=321 q=-0.0 size=N/A time=00:03:48.06 bitrate=N/A speed=13.4x    frame= 5645 fps=322 q=-0.0 size=N/A time=00:03:55.44 bitrate=N/A speed=13.4x    frame= 5823 fps=322 q=-0.0 size=N/A time=00:04:02.86 bitrate=N/A speed=13.4x    frame= 6004 fps=323 q=-0.0 size=N/A time=00:04:10.41 bitrate=N/A speed=13.5x    frame= 6188 fps=324 q=-0.0 size=N/A time=00:04:18.09 bitrate=N/A speed=13.5x    frame= 6367 fps=325 q=-0.0 size=N/A time=00:04:25.55 bitrate=N/A speed=13.5x    frame= 6541 fps=325 q=-0.0 size=N/A time=00:04:32.81 bitrate=N/A speed=13.6x    frame= 6729 fps=326 q=-0.0 size=N/A time=00:04:40.65 bitrate=N/A speed=13.6x    frame= 6907 fps=326 q=-0.0 size=N/A time=00:04:48.07 bitrate=N/A speed=13.6x    frame= 7089 fps=327 q=-0.0 size=N/A time=00:04:55.67 bitrate=N/A speed=13.6x    frame= 7265 fps=327 q=-0.0 size=N/A time=00:05:03.01 bitrate=N/A speed=13.7x    frame= 7450 fps=328 q=-0.0 size=N/A time=00:05:10.72 bitrate=N/A speed=13.7x    frame= 7624 fps=328 q=-0.0 size=N/A time=00:05:17.98 bitrate=N/A speed=13.7x    frame= 7793 fps=328 q=-0.0 size=N/A time=00:05:25.03 bitrate=N/A speed=13.7x    frame= 7975 fps=329 q=-0.0 size=N/A time=00:05:32.62 bitrate=N/A speed=13.7x    frame= 8159 fps=329 q=-0.0 size=N/A time=00:05:40.29 bitrate=N/A speed=13.7x    frame= 8337 fps=330 q=-0.0 size=N/A time=00:05:47.72 bitrate=N/A speed=13.8x    frame= 8521 fps=330 q=-0.0 size=N/A time=00:05:55.39 bitrate=N/A speed=13.8x    frame= 8699 fps=331 q=-0.0 size=N/A time=00:06:02.82 bitrate=N/A speed=13.8x    frame= 8887 fps=331 q=-0.0 size=N/A time=00:06:10.66 bitrate=N/A speed=13.8x    frame= 9068 fps=332 q=-0.0 size=N/A time=00:06:18.21 bitrate=N/A speed=13.8x    frame= 9253 fps=332 q=-0.0 size=N/A time=00:06:25.92 bitrate=N/A speed=13.9x    frame= 9434 fps=333 q=-0.0 size=N/A time=00:06:33.47 bitrate=N/A speed=13.9x    frame= 9622 fps=333 q=-0.0 size=N/A time=00:06:41.31 bitrate=N/A speed=13.9x    frame= 9799 fps=333 q=-0.0 size=N/A time=00:06:48.69 bitrate=N/A speed=13.9x    frame= 9985 fps=334 q=-0.0 size=N/A time=00:06:56.45 bitrate=N/A speed=13.9x    frame=10166 fps=334 q=-0.0 size=N/A time=00:07:04.00 bitrate=N/A speed=13.9x    frame=10352 fps=334 q=-0.0 size=N/A time=00:07:11.76 bitrate=N/A speed=13.9x    frame=10528 fps=335 q=-0.0 size=N/A time=00:07:19.10 bitrate=N/A speed=  14x    frame=10711 fps=335 q=-0.0 size=N/A time=00:07:26.73 bitrate=N/A speed=  14x    frame=10891 fps=335 q=-0.0 size=N/A time=00:07:34.24 bitrate=N/A speed=  14x    frame=11079 fps=336 q=-0.0 size=N/A time=00:07:42.08 bitrate=N/A speed=  14x    frame=11251 fps=336 q=-0.0 size=N/A time=00:07:49.26 bitrate=N/A speed=  14x    frame=11431 fps=336 q=-0.0 size=N/A time=00:07:56.76 bitrate=N/A speed=  14x    frame=11613 fps=336 q=-0.0 size=N/A time=00:08:04.35 bitrate=N/A speed=  14x    frame=11792 fps=336 q=-0.0 size=N/A time=00:08:11.82 bitrate=N/A speed=  14x    frame=11970 fps=336 q=-0.0 size=N/A time=00:08:19.24 bitrate=N/A speed=  14x    frame=12153 fps=337 q=-0.0 size=N/A time=00:08:26.88 bitrate=N/A speed=  14x    frame=12332 fps=337 q=-0.0 size=N/A time=00:08:34.34 bitrate=N/A speed=  14x    frame=12515 fps=337 q=-0.0 size=N/A time=00:08:41.97 bitrate=N/A speed=14.1x    frame=12699 fps=337 q=-0.0 size=N/A time=00:08:49.65 bitrate=N/A speed=14.1x    frame=12878 fps=337 q=-0.0 size=N/A time=00:08:57.11 bitrate=N/A speed=14.1x    frame=13064 fps=338 q=-0.0 size=N/A time=00:09:04.87 bitrate=N/A speed=14.1x    frame=13242 fps=338 q=-0.0 size=N/A time=00:09:12.30 bitrate=N/A speed=14.1x    frame=13418 fps=338 q=-0.0 size=N/A time=00:09:19.64 bitrate=N/A speed=14.1x    frame=13596 fps=338 q=-0.0 size=N/A time=00:09:27.06 bitrate=N/A speed=14.1x    frame=13782 fps=338 q=-0.0 size=N/A time=00:09:34.82 bitrate=N/A speed=14.1x    frame=13965 fps=338 q=-0.0 size=N/A time=00:09:42.45 bitrate=N/A speed=14.1x    frame=14134 fps=338 q=-0.0 size=N/A time=00:09:49.50 bitrate=N/A speed=14.1x    frame=14314 fps=338 q=-0.0 size=N/A time=00:09:57.01 bitrate=N/A speed=14.1x    frame=14500 fps=339 q=-0.0 size=N/A time=00:10:04.77 bitrate=N/A speed=14.1x    frame=14675 fps=339 q=-0.0 size=N/A time=00:10:12.06 bitrate=N/A speed=14.1x    frame=14863 fps=339 q=-0.0 size=N/A time=00:10:19.91 bitrate=N/A speed=14.1x    frame=15047 fps=339 q=-0.0 size=N/A time=00:10:27.58 bitrate=N/A speed=14.1x    frame=15205 fps=339 q=-0.0 size=N/A time=00:10:34.17 bitrate=N/A speed=14.1x    frame=15378 fps=339 q=-0.0 size=N/A time=00:10:41.39 bitrate=N/A speed=14.1x    frame=15555 fps=339 q=-0.0 size=N/A time=00:10:48.77 bitrate=N/A speed=14.1x    frame=15746 fps=339 q=-0.0 size=N/A time=00:10:56.73 bitrate=N/A speed=14.1x    frame=15926 fps=339 q=-0.0 size=N/A time=00:11:04.24 bitrate=N/A speed=14.2x    frame=16107 fps=339 q=-0.0 size=N/A time=00:11:11.79 bitrate=N/A speed=14.2x    frame=16287 fps=340 q=-0.0 size=N/A time=00:11:19.30 bitrate=N/A speed=14.2x    frame=16472 fps=340 q=-0.0 size=N/A time=00:11:27.01 bitrate=N/A speed=14.2x    frame=16650 fps=340 q=-0.0 size=N/A time=00:11:34.44 bitrate=N/A speed=14.2x    frame=16835 fps=340 q=-0.0 size=N/A time=00:11:42.15 bitrate=N/A speed=14.2x    frame=17021 fps=340 q=-0.0 size=N/A time=00:11:49.91 bitrate=N/A speed=14.2x    frame=17202 fps=340 q=-0.0 size=N/A time=00:11:57.46 bitrate=N/A speed=14.2x    frame=17380 fps=340 q=-0.0 size=N/A time=00:12:04.89 bitrate=N/A speed=14.2x    frame=17564 fps=341 q=-0.0 size=N/A time=00:12:12.56 bitrate=N/A speed=14.2x    frame=17741 fps=341 q=-0.0 size=N/A time=00:12:19.94 bitrate=N/A speed=14.2x    frame=17926 fps=341 q=-0.0 size=N/A time=00:12:27.66 bitrate=N/A speed=14.2x    frame=18112 fps=341 q=-0.0 size=N/A time=00:12:35.42 bitrate=N/A speed=14.2x    frame=18285 fps=341 q=-0.0 size=N/A time=00:12:42.63 bitrate=N/A speed=14.2x    frame=18473 fps=341 q=-0.0 size=N/A time=00:12:50.47 bitrate=N/A speed=14.2x    frame=18652 fps=341 q=-0.0 size=N/A time=00:12:57.94 bitrate=N/A speed=14.2x    frame=18832 fps=341 q=-0.0 size=N/A time=00:13:05.45 bitrate=N/A speed=14.2x    frame=19018 fps=341 q=-0.0 size=N/A time=00:13:13.20 bitrate=N/A speed=14.2x    frame=19197 fps=341 q=-0.0 size=N/A time=00:13:20.67 bitrate=N/A speed=14.2x    frame=19378 fps=342 q=-0.0 size=N/A time=00:13:28.22 bitrate=N/A speed=14.2x    frame=19569 fps=342 q=-0.0 size=N/A time=00:13:36.19 bitrate=N/A speed=14.3x    frame=19748 fps=342 q=-0.0 size=N/A time=00:13:43.65 bitrate=N/A speed=14.3x    frame=19929 fps=342 q=-0.0 size=N/A time=00:13:51.20 bitrate=N/A speed=14.3x    frame=20114 fps=342 q=-0.0 size=N/A time=00:13:58.92 bitrate=N/A speed=14.3x    frame=20298 fps=342 q=-0.0 size=N/A time=00:14:06.59 bitrate=N/A speed=14.3x    frame=20472 fps=342 q=-0.0 size=N/A time=00:14:13.85 bitrate=N/A speed=14.3x    frame=20652 fps=342 q=-0.0 size=N/A time=00:14:21.36 bitrate=N/A speed=14.3x    frame=20834 fps=342 q=-0.0 size=N/A time=00:14:28.95 bitrate=N/A speed=14.3x    frame=21006 fps=342 q=-0.0 size=N/A time=00:14:36.12 bitrate=N/A speed=14.3x    frame=21191 fps=342 q=-0.0 size=N/A time=00:14:43.84 bitrate=N/A speed=14.3x    frame=21376 fps=343 q=-0.0 size=N/A time=00:14:51.55 bitrate=N/A speed=14.3x    frame=21549 fps=343 q=-0.0 size=N/A time=00:14:58.77 bitrate=N/A speed=14.3x    frame=21744 fps=343 q=-0.0 size=N/A time=00:15:06.90 bitrate=N/A speed=14.3x    frame=21922 fps=343 q=-0.0 size=N/A time=00:15:14.33 bitrate=N/A speed=14.3x    frame=22102 fps=343 q=-0.0 size=N/A time=00:15:21.87 bitrate=N/A speed=14.3x    frame=22290 fps=343 q=-0.0 size=N/A time=00:15:29.67 bitrate=N/A speed=14.3x    frame=22478 fps=343 q=-0.0 size=N/A time=00:15:37.51 bitrate=N/A speed=14.3x    frame=22652 fps=343 q=-0.0 size=N/A time=00:15:44.77 bitrate=N/A speed=14.3x    frame=22839 fps=343 q=-0.0 size=N/A time=00:15:52.57 bitrate=N/A speed=14.3x    frame=23023 fps=343 q=-0.0 size=N/A time=00:16:00.25 bitrate=N/A speed=14.3x    frame=23200 fps=343 q=-0.0 size=N/A time=00:16:07.63 bitrate=N/A speed=14.3x    frame=23374 fps=343 q=-0.0 size=N/A time=00:16:14.89 bitrate=N/A speed=14.3x    frame=23571 fps=344 q=-0.0 size=N/A time=00:16:23.10 bitrate=N/A speed=14.3x    frame=23756 fps=344 q=-0.0 size=N/A time=00:16:30.82 bitrate=N/A speed=14.3x    frame=23942 fps=344 q=-0.0 size=N/A time=00:16:38.58 bitrate=N/A speed=14.3x    frame=24123 fps=344 q=-0.0 size=N/A time=00:16:46.13 bitrate=N/A speed=14.3x    frame=24305 fps=344 q=-0.0 size=N/A time=00:16:53.72 bitrate=N/A speed=14.3x    frame=24485 fps=344 q=-0.0 size=N/A time=00:17:01.22 bitrate=N/A speed=14.3x    frame=24664 fps=344 q=-0.0 size=N/A time=00:17:08.69 bitrate=N/A speed=14.3x    frame=24850 fps=344 q=-0.0 size=N/A time=00:17:16.45 bitrate=N/A speed=14.4x    frame=25036 fps=344 q=-0.0 size=N/A time=00:17:24.20 bitrate=N/A speed=14.4x    frame=25214 fps=344 q=-0.0 size=N/A time=00:17:31.63 bitrate=N/A speed=14.4x    frame=25396 fps=344 q=-0.0 size=N/A time=00:17:39.22 bitrate=N/A speed=14.4x    frame=25571 fps=344 q=-0.0 size=N/A time=00:17:46.52 bitrate=N/A speed=14.4x    frame=25749 fps=344 q=-0.0 size=N/A time=00:17:53.94 bitrate=N/A speed=14.4x    frame=25931 fps=344 q=-0.0 size=N/A time=00:18:01.53 bitrate=N/A speed=14.4x    frame=26111 fps=344 q=-0.0 size=N/A time=00:18:09.04 bitrate=N/A speed=14.4x    frame=26287 fps=344 q=-0.0 size=N/A time=00:18:16.38 bitrate=N/A speed=14.4x    frame=26469 fps=344 q=-0.0 size=N/A time=00:18:23.97 bitrate=N/A speed=14.4x    frame=26653 fps=344 q=-0.0 size=N/A time=00:18:31.65 bitrate=N/A speed=14.4x    frame=26839 fps=345 q=-0.0 size=N/A time=00:18:39.40 bitrate=N/A speed=14.4x    frame=27014 fps=345 q=-0.0 size=N/A time=00:18:46.70 bitrate=N/A speed=14.4x    frame=27194 fps=345 q=-0.0 size=N/A time=00:18:54.21 bitrate=N/A speed=14.4x    frame=27369 fps=345 q=-0.0 size=N/A time=00:19:01.51 bitrate=N/A speed=14.4x    frame=27550 fps=345 q=-0.0 size=N/A time=00:19:09.06 bitrate=N/A speed=14.4x    frame=27724 fps=345 q=-0.0 size=N/A time=00:19:16.32 bitrate=N/A speed=14.4x    frame=27909 fps=345 q=-0.0 size=N/A time=00:19:24.03 bitrate=N/A speed=14.4x    frame=28088 fps=345 q=-0.0 size=N/A time=00:19:31.50 bitrate=N/A speed=14.4x    frame=28266 fps=345 q=-0.0 size=N/A time=00:19:38.92 bitrate=N/A speed=14.4x    frame=28449 fps=345 q=-0.0 size=N/A time=00:19:46.56 bitrate=N/A speed=14.4x    frame=28631 fps=345 q=-0.0 size=N/A time=00:19:54.15 bitrate=N/A speed=14.4x    frame=28806 fps=345 q=-0.0 size=N/A time=00:20:01.45 bitrate=N/A speed=14.4x    frame=28976 fps=345 q=-0.0 size=N/A time=00:20:08.54 bitrate=N/A speed=14.4x    frame=29140 fps=344 q=-0.0 size=N/A time=00:20:15.38 bitrate=N/A speed=14.4x    frame=29325 fps=345 q=-0.0 size=N/A time=00:20:23.09 bitrate=N/A speed=14.4x    frame=29496 fps=344 q=-0.0 size=N/A time=00:20:30.22 bitrate=N/A speed=14.4x    frame=29667 fps=344 q=-0.0 size=N/A time=00:20:37.36 bitrate=N/A speed=14.4x    frame=29844 fps=344 q=-0.0 size=N/A time=00:20:44.74 bitrate=N/A speed=14.4x    frame=30004 fps=344 q=-0.0 size=N/A time=00:20:51.41 bitrate=N/A speed=14.4x    frame=30170 fps=344 q=-0.0 size=N/A time=00:20:58.34 bitrate=N/A speed=14.4x    frame=30349 fps=344 q=-0.0 size=N/A time=00:21:05.80 bitrate=N/A speed=14.4x    frame=30535 fps=344 q=-0.0 size=N/A time=00:21:13.56 bitrate=N/A speed=14.4x    frame=30713 fps=344 q=-0.0 size=N/A time=00:21:20.98 bitrate=N/A speed=14.4x    frame=30896 fps=344 q=-0.0 size=N/A time=00:21:28.62 bitrate=N/A speed=14.4x    frame=31070 fps=344 q=-0.0 size=N/A time=00:21:35.87 bitrate=N/A speed=14.4x    frame=31258 fps=344 q=-0.0 size=N/A time=00:21:43.71 bitrate=N/A speed=14.4x    frame=31436 fps=344 q=-0.0 size=N/A time=00:21:51.14 bitrate=N/A speed=14.4x    frame=31613 fps=344 q=-0.0 size=N/A time=00:21:58.52 bitrate=N/A speed=14.4x    frame=31791 fps=344 q=-0.0 size=N/A time=00:22:05.94 bitrate=N/A speed=14.4x    frame=31966 fps=344 q=-0.0 size=N/A time=00:22:13.24 bitrate=N/A speed=14.4x    frame=32143 fps=344 q=-0.0 size=N/A time=00:22:20.63 bitrate=N/A speed=14.4x    frame=32323 fps=344 q=-0.0 size=N/A time=00:22:28.13 bitrate=N/A speed=14.4x    frame=32505 fps=344 q=-0.0 size=N/A time=00:22:35.72 bitrate=N/A speed=14.4x    frame=32662 fps=344 q=-0.0 size=N/A time=00:22:42.27 bitrate=N/A speed=14.4x    frame=32819 fps=344 q=-0.0 size=N/A time=00:22:48.82 bitrate=N/A speed=14.3x    frame=32984 fps=344 q=-0.0 size=N/A time=00:22:55.70 bitrate=N/A speed=14.3x    frame=33159 fps=344 q=-0.0 size=N/A time=00:23:03.00 bitrate=N/A speed=14.3x    frame=33335 fps=344 q=-0.0 size=N/A time=00:23:10.34 bitrate=N/A speed=14.3x    frame=33502 fps=344 q=-0.0 size=N/A time=00:23:17.31 bitrate=N/A speed=14.3x    frame=33651 fps=343 q=-0.0 size=N/A time=00:23:23.52 bitrate=N/A speed=14.3x    frame=33791 fps=343 q=-0.0 size=N/A time=00:23:29.36 bitrate=N/A speed=14.3x    frame=33921 fps=343 q=-0.0 size=N/A time=00:23:34.78 bitrate=N/A speed=14.3x    frame=34083 fps=342 q=-0.0 size=N/A time=00:23:41.54 bitrate=N/A speed=14.3x    frame=34250 fps=342 q=-0.0 size=N/A time=00:23:48.51 bitrate=N/A speed=14.3x    frame=34381 fps=342 q=-0.0 size=N/A time=00:23:53.97 bitrate=N/A speed=14.3x    frame=34540 fps=342 q=-0.0 size=N/A time=00:24:00.60 bitrate=N/A speed=14.2x    [Parsed_ssim_16 @ 000001fe11e92e40] SSIM Y:0.993874 (22.128243) U:0.993980 (22.203991) V:0.993582 (21.925762) All:0.993843 (22.106268)
[out#0/null @ 000001fe0552dec0] video:14903KiB audio:271276KiB subtitle:0KiB other streams:0KiB global headers:0KiB muxing overhead: unknown
frame=34683 fps=342 q=-0.0 Lsize=N/A time=00:24:06.57 bitrate=N/A speed=14.3x    
